<svg width="874" height="266" viewBox="0 0 874 266" fill="none" xmlns="http://www.w3.org/2000/svg">
<g clip-path="url(#clip0)">
<path d="M29.4492 164.03H46.9392L62.1492 147.06H41.9992L29.4492 164.03Z" fill="black"/>
<path d="M18.0492 264.87H-0.0507812L20.5492 234.36C10.4692 231.22 3.63922 222.92 3.63922 211.92C3.63922 196.85 14.6392 186.66 32.0392 186.66H64.1292V264.87H47.8692V236.63H36.6492L18.0492 264.87ZM47.8592 199.5H34.3592C25.6292 199.5 20.3792 204.22 20.3792 211.97C20.3792 219.83 25.5792 224.44 34.3592 224.44H47.8592V199.5Z" fill="black"/>
<path d="M166.909 264.87H134.819V186.66H186.799V200.16H151.189V216.04H166.369C182.679 216.04 194.009 225.74 194.009 240.21C194.009 255 182.949 264.87 166.909 264.87ZM162.839 251.81C171.949 251.81 177.259 247.75 177.259 240.21C177.259 232.62 171.949 228.5 162.789 228.5H151.189V251.8H162.839V251.81Z" fill="black"/>
<path d="M310.079 264.87V200.16H287.259L285.359 233.98C284.279 254.2 277.829 265.58 262.219 265.58C259.559 265.58 257.399 265.2 256.309 264.82V250.51C257.069 250.67 258.529 250.94 259.939 250.94C267.199 250.94 269.699 244.65 270.289 232.89L272.619 186.66H326.439V264.87H310.079Z" fill="black"/>
<path d="M470.149 225.79C470.149 250.67 455.569 266.22 432.429 266.22C409.229 266.22 394.709 250.66 394.709 225.79C394.709 200.86 409.239 185.3 432.429 185.3C455.569 185.3 470.149 200.86 470.149 225.79ZM411.399 225.79C411.399 242.16 419.579 252.51 432.429 252.51C445.219 252.51 453.409 242.16 453.409 225.79C453.409 209.37 445.229 198.96 432.429 198.96C419.639 198.96 411.399 209.37 411.399 225.79Z" fill="black"/>
<path d="M585.789 264.87V232.73H585.139C582.919 234.46 576.579 237.88 567.039 237.88C547.799 237.88 537.179 225.63 537.179 208.88V186.66H553.549V207.63C553.549 217.82 559.299 223.84 570.029 223.84C578.759 223.84 583.689 220.48 585.799 218.37V186.66H602.169V264.87H585.789V264.87Z" fill="black"/>
<path d="M739.569 264.87H719.139L689.659 230.51H689.229V264.87H672.859V186.66H689.229V219.78H689.659L718.549 186.66H737.029L704.619 223.68L739.569 264.87Z" fill="black"/>
<path d="M874.009 225.79C874.009 250.67 859.429 266.22 836.289 266.22C813.089 266.22 798.569 250.66 798.569 225.79C798.569 200.86 813.099 185.3 836.289 185.3C859.429 185.3 874.009 200.86 874.009 225.79ZM815.259 225.79C815.259 242.16 823.439 252.51 836.289 252.51C849.079 252.51 857.269 242.16 857.269 225.79C857.269 209.37 849.089 198.96 836.289 198.96C823.499 198.96 815.259 209.37 815.259 225.79Z" fill="black"/>
<path d="M83.9546 95.4468H69.1582V80H7.0459V1.79053H23.4141V66.5044H57.8306V1.79053H74.1987V66.5044H83.9546V95.4468Z" fill="black"/>
<path d="M178.446 80V27.1016H177.795L142.295 80H126.523V1.79053H142.837V54.7432H143.487L178.988 1.79053H194.759V80H178.446Z" fill="black"/>
<path d="M275.159 60.1089V21.3564C269.124 21.6455 264.319 23.5244 260.742 26.9932C257.201 30.4258 255.43 34.9966 255.43 40.7056C255.43 46.4868 257.201 51.1118 260.742 54.5806C264.319 58.0132 269.124 59.856 275.159 60.1089ZM305.239 54.5264C308.816 51.0938 310.605 46.5049 310.605 40.7598C310.605 35.0146 308.816 30.4258 305.239 26.9932C301.698 23.5244 296.911 21.6455 290.876 21.3564V60.1089C296.911 59.8198 301.698 57.959 305.239 54.5264ZM274.996 73.2793C264.012 72.9541 255.249 69.9009 248.709 64.1196C242.205 58.3384 238.954 50.5337 238.954 40.7056C238.954 30.9497 242.205 23.1992 248.709 17.4541C255.249 11.6729 264.012 8.60156 274.996 8.24023V0.164551H291.093V8.24023C302.078 8.56543 310.822 11.6187 317.326 17.3999C323.829 23.145 327.081 30.9316 327.081 40.7598C327.081 50.5518 323.811 58.3384 317.271 64.1196C310.767 69.8647 302.041 72.918 291.093 73.2793V81.626H274.996V73.2793Z" fill="black"/>
<path d="M371.221 1.79053H403.036C411.094 1.79053 417.616 4.24756 422.602 9.16162C427.625 14.0757 430.136 20.5435 430.136 28.5649C430.136 36.5503 427.552 43.0181 422.385 47.9683C417.218 52.8823 410.498 55.3394 402.223 55.3394H387.589V80H371.221V1.79053ZM387.589 14.7441V42.5483H398.646C403.343 42.5483 406.993 41.3379 409.594 38.917C412.196 36.4961 413.497 33.0635 413.497 28.6191C413.497 24.1748 412.196 20.7603 409.594 18.3755C407.029 15.9546 403.398 14.7441 398.7 14.7441H387.589Z" fill="black"/>
<path d="M482.46 11.3296C489.253 4.06689 498.449 0.435547 510.047 0.435547C521.646 0.435547 530.824 4.06689 537.58 11.3296C544.373 18.5923 547.77 28.4565 547.77 40.9224C547.77 53.3521 544.373 63.1982 537.58 70.4609C530.787 77.7236 521.61 81.355 510.047 81.355C498.449 81.355 489.253 77.7236 482.46 70.4609C475.703 63.1982 472.325 53.3521 472.325 40.9224C472.325 28.4565 475.703 18.5923 482.46 11.3296ZM525.331 21.3564C521.537 16.5146 516.443 14.0938 510.047 14.0938C503.652 14.0938 498.539 16.5146 494.709 21.3564C490.915 26.1982 489.018 32.7202 489.018 40.9224C489.018 49.0884 490.915 55.5923 494.709 60.4341C498.503 65.2397 503.616 67.6426 510.047 67.6426C516.443 67.6426 521.537 65.2397 525.331 60.4341C529.125 55.5923 531.022 49.0884 531.022 40.9224C531.022 32.7202 529.125 26.1982 525.331 21.3564Z" fill="black"/>
<path d="M627.356 80H592.723V1.79053H626.76C634.095 1.79053 639.912 3.54297 644.212 7.04785C648.512 10.5527 650.662 15.3042 650.662 21.3022C650.662 25.5659 649.252 29.3057 646.434 32.5215C643.652 35.7373 640.165 37.6523 635.974 38.2666V38.7002C641.321 39.0977 645.729 41.0669 649.198 44.6079C652.667 48.1489 654.401 52.4849 654.401 57.6157C654.401 64.5171 651.98 69.9731 647.139 73.9839C642.297 77.9946 635.703 80 627.356 80ZM609.091 13.9854V34.3101H620.852C625.224 34.3101 628.603 33.4067 630.987 31.6001C633.372 29.7573 634.564 27.1738 634.564 23.8496C634.564 20.7061 633.517 18.2852 631.421 16.5869C629.325 14.8525 626.362 13.9854 622.532 13.9854H609.091ZM609.091 67.8052H623.183C627.916 67.8052 631.511 66.8296 633.968 64.8784C636.461 62.8911 637.708 60.0366 637.708 56.3149C637.708 52.6655 636.425 49.8833 633.86 47.9683C631.331 46.0532 627.645 45.0957 622.803 45.0957H609.091V67.8052Z" fill="black"/>
<path d="M705.804 11.3296C712.597 4.06689 721.793 0.435547 733.391 0.435547C744.99 0.435547 754.168 4.06689 760.924 11.3296C767.717 18.5923 771.114 28.4565 771.114 40.9224C771.114 53.3521 767.717 63.1982 760.924 70.4609C754.132 77.7236 744.954 81.355 733.391 81.355C721.793 81.355 712.597 77.7236 705.804 70.4609C699.047 63.1982 695.669 53.3521 695.669 40.9224C695.669 28.4565 699.047 18.5923 705.804 11.3296ZM748.675 21.3564C744.882 16.5146 739.787 14.0938 733.391 14.0938C726.996 14.0938 721.883 16.5146 718.053 21.3564C714.259 26.1982 712.362 32.7202 712.362 40.9224C712.362 49.0884 714.259 55.5923 718.053 60.4341C721.847 65.2397 726.96 67.6426 733.391 67.6426C739.787 67.6426 744.882 65.2397 748.675 60.4341C752.469 55.5923 754.366 49.0884 754.366 40.9224C754.366 32.7202 752.469 26.1982 748.675 21.3564Z" fill="black"/>
<path d="M867.881 66.4502V80H816.067V1.79053H867.881V15.2861H832.435V34.1475H865.876V46.7217H832.435V66.4502H867.881Z" fill="black"/>
</g>
<defs>
<clipPath id="clip0">
<rect width="874" height="266" fill="white"/>
</clipPath>
</defs>
</svg>
